<svg width="1080" height="644" viewBox="0 0 1080 644" fill="none" xmlns="http://www.w3.org/2000/svg">
<rect width="1080" height="644" fill="white"/>
<g clip-path="url(#clip0_1217_2)">
<path d="M413.564 231.193C417.212 216.392 451.684 194.777 470.105 207.809C475.76 179.612 481.049 162.029 499.522 148.139C517.996 134.249 548.82 152.405 553.77 190.434C558.721 174.801 583.891 153.732 604.11 171.497C622.819 187.936 624.695 215.482 622.741 231.167H413.564V231.193Z" fill="url(#paint0_linear_1217_2)"/>
<path d="M464.879 250.67C461.972 238.884 434.502 221.671 419.823 232.049C415.317 209.595 411.102 195.593 396.382 184.531C381.661 173.47 357.098 187.928 353.153 218.212C349.208 205.763 329.15 188.985 313.038 203.132C298.131 216.223 296.636 238.159 298.193 250.649H464.879V250.67Z" fill="url(#paint1_linear_1217_2)"/>
<path d="M806.575 231.193C803.612 219.177 775.606 201.628 760.64 212.208C756.046 189.316 751.749 175.04 736.741 163.763C721.732 152.486 696.691 167.227 692.669 198.101C688.647 185.41 668.198 168.304 651.771 182.727C636.573 196.074 635.048 218.439 636.636 231.173H806.575V231.193Z" fill="url(#paint2_linear_1217_2)"/>
<path d="M452.737 259.212L444.399 444.436H292.658L308.349 369.26L358.919 353.29C360.229 352.828 361.422 352.085 362.414 351.111C363.405 350.138 364.171 348.959 364.658 347.657L394.895 269.958L452.737 259.212Z" fill="#EB4432"/>
<path d="M436.02 278.711L432.234 345.534L377.469 350.667L401.061 281.154L436.02 278.711ZM301.674 369.459L314.017 367.505L306.824 392.936L300.469 392.258C299.79 392.185 299.166 391.851 298.73 391.326C298.293 390.802 298.077 390.128 298.127 389.447L299.472 371.841C299.518 371.254 299.76 370.7 300.16 370.267C300.559 369.835 301.093 369.55 301.674 369.459Z" fill="white"/>
<path d="M370.674 332.714C373.624 335.226 370.963 357.915 368.852 357.536C366.749 357.157 362.246 356.29 360.423 354.854C358.6 353.419 348.358 335.057 350.849 331.248C353.34 327.439 368.393 330.759 370.674 332.714Z" fill="#EB4432"/>
<path opacity="0.1" d="M370.674 332.714C373.624 335.226 370.963 357.915 368.852 357.536C366.749 357.157 362.246 356.29 360.423 354.854C358.6 353.419 348.358 335.057 350.849 331.248C353.34 327.439 368.393 330.759 370.674 332.714Z" fill="black"/>
<path d="M448.593 444.436H760.553L742.01 216.866H459.982L448.593 444.436Z" fill="#EB4432"/>
<path d="M762.127 454.445H285.684V440.259H762.127V454.445Z" fill="url(#paint3_linear_1217_2)"/>
<path d="M322.795 456.099V436.84L276.185 433.975L272.804 456.099H322.795ZM771.183 434.233L742.101 437.239V456.099H774.702L771.183 434.233Z" fill="#DBDBDB" stroke="#E1E4E5" stroke-width="1.148"/>
<path d="M635.69 458.731C635.69 458.731 640.124 425.883 672.602 425.883C705.081 425.883 709.892 458.731 709.892 458.731" stroke="#E1E4E5" stroke-width="11.481" stroke-miterlimit="10"/>
<path d="M672.801 426.96C719.257 426.96 719.337 499.196 672.801 499.196C626.346 499.196 626.266 426.96 672.801 426.96Z" fill="#65302A"/>
<path d="M672.802 446.679C693.883 446.679 693.922 479.466 672.802 479.466C651.711 479.466 651.682 446.679 672.802 446.679Z" fill="#E1E4E5"/>
<path d="M357.415 458.731C357.415 458.731 361.849 425.883 394.326 425.883C426.804 425.883 431.616 458.731 431.616 458.731" stroke="#E1E4E5" stroke-width="11.481" stroke-miterlimit="10"/>
<path d="M394.346 426.96C440.803 426.96 440.882 499.196 394.346 499.196C347.891 499.196 347.811 426.96 394.346 426.96Z" fill="#65302A"/>
<path d="M394.346 446.679C415.426 446.679 415.466 479.466 394.346 479.466C373.255 479.466 373.226 446.679 394.346 446.679Z" fill="#E1E4E5"/>
<path d="M636.193 359.588C618.128 374.646 588.83 374.646 570.766 359.588M563.458 297.592V307.751M644.975 297.592V307.751M596.504 335.117H609.547M606.286 287.805C600.08 301.676 596.504 317.121 596.504 333.485" stroke="#65302A" stroke-width="15.03" stroke-linecap="round" stroke-linejoin="round"/>
</g>
<path d="M404.456 576.888V568.152C404.456 567.448 404.264 566.936 403.88 566.616C403.496 566.232 402.888 566.04 402.056 566.04H392.84C387.848 566.04 384.424 564.92 382.568 562.68C380.776 560.44 379.88 557.528 379.88 553.944V541.272C379.88 537.688 380.936 534.808 383.048 532.632C385.16 530.456 388.776 529.368 393.896 529.368H407.048C412.168 529.368 415.784 530.456 417.896 532.632C420.008 534.808 421.064 537.688 421.064 541.272V548.664H404.264V543.48C404.264 542.776 404.072 542.264 403.688 541.944C403.304 541.56 402.696 541.368 401.864 541.368H399.08C398.248 541.368 397.64 541.56 397.256 541.944C396.872 542.264 396.68 542.776 396.68 543.48V552.6C396.68 553.304 396.872 553.848 397.256 554.232C397.64 554.552 398.248 554.712 399.08 554.712H408.104C413.096 554.712 416.52 555.768 418.376 557.88C420.296 559.992 421.256 562.84 421.256 566.424V579.096C421.256 582.68 420.2 585.56 418.088 587.736C415.976 589.912 412.36 591 407.24 591H394.184C389.064 591 385.416 589.912 383.24 587.736C381.128 585.56 380.072 582.68 380.072 579.096V571.704H396.872V576.888C396.872 577.592 397.064 578.136 397.448 578.52C397.832 578.84 398.44 579 399.272 579H402.056C402.888 579 403.496 578.84 403.88 578.52C404.264 578.136 404.456 577.592 404.456 576.888ZM467.26 591H450.94V557.208C450.94 556.504 450.748 555.992 450.364 555.672C449.98 555.288 449.372 555.096 448.54 555.096H446.908C446.076 555.096 445.436 555.32 444.988 555.768C444.54 556.216 444.316 556.952 444.316 557.976V560.568H443.74V551.928C443.74 549.24 444.476 547.096 445.948 545.496C447.484 543.896 449.756 543.096 452.764 543.096H454.492C459.036 543.096 462.3 544.184 464.284 546.36C466.268 548.536 467.26 551.416 467.26 555V591ZM444.316 591H427.996V526.776H444.316V591ZM490.816 591H474.496V543.096H490.816V591ZM474.208 538.296V526.776H491.104V538.296H474.208ZM537.76 567.96H521.44V557.208C521.44 556.504 521.248 555.992 520.864 555.672C520.48 555.288 519.872 555.096 519.04 555.096H517.408C516.576 555.096 515.936 555.32 515.488 555.768C515.04 556.216 514.816 556.952 514.816 557.976V560.568H514.24V551.928C514.24 549.24 514.976 547.096 516.448 545.496C517.984 543.896 520.256 543.096 523.264 543.096H524.992C529.536 543.096 532.8 544.184 534.784 546.36C536.768 548.536 537.76 551.416 537.76 555V567.96ZM514.816 603.384H498.496V543.096H514.528V552.216H514.816V603.384ZM521.44 566.136H537.76V579.096C537.76 582.68 536.768 585.56 534.784 587.736C532.8 589.912 529.536 591 524.992 591H523.264C520.256 591 517.984 590.2 516.448 588.6C514.976 587 514.24 584.856 514.24 582.168V573.528H514.816V576.12C514.816 577.144 515.04 577.88 515.488 578.328C515.936 578.776 516.576 579 517.408 579H519.04C519.872 579 520.48 578.84 520.864 578.52C521.248 578.136 521.44 577.592 521.44 576.888V566.136ZM583.698 567.96H567.378V557.208C567.378 556.504 567.186 555.992 566.802 555.672C566.418 555.288 565.81 555.096 564.978 555.096H563.346C562.514 555.096 561.874 555.32 561.426 555.768C560.978 556.216 560.754 556.952 560.754 557.976V560.568H560.178V551.928C560.178 549.24 560.914 547.096 562.386 545.496C563.922 543.896 566.194 543.096 569.202 543.096H570.93C575.474 543.096 578.738 544.184 580.722 546.36C582.706 548.536 583.698 551.416 583.698 555V567.96ZM560.754 603.384H544.434V543.096H560.466V552.216H560.754V603.384ZM567.378 566.136H583.698V579.096C583.698 582.68 582.706 585.56 580.722 587.736C578.738 589.912 575.474 591 570.93 591H569.202C566.194 591 563.922 590.2 562.386 588.6C560.914 587 560.178 584.856 560.178 582.168V573.528H560.754V576.12C560.754 577.144 560.978 577.88 561.426 578.328C561.874 578.776 562.514 579 563.346 579H564.978C565.81 579 566.418 578.84 566.802 578.52C567.186 578.136 567.378 577.592 567.378 576.888V566.136ZM606.691 591H590.371V543.096H606.691V591ZM590.083 538.296V526.776H606.979V538.296H590.083ZM630.691 591H614.371V543.096H630.403V552.216H630.691V591ZM653.635 591H637.315V557.208C637.315 556.504 637.123 555.992 636.739 555.672C636.355 555.288 635.747 555.096 634.915 555.096H633.283C632.451 555.096 631.811 555.32 631.363 555.768C630.915 556.216 630.691 556.952 630.691 557.976V560.568H630.115V551.928C630.115 549.24 630.851 547.096 632.323 545.496C633.859 543.896 636.131 543.096 639.139 543.096H640.867C645.411 543.096 648.675 544.184 650.659 546.36C652.643 548.536 653.635 551.416 653.635 555V591ZM659.911 566.136H676.231V574.008C676.231 574.712 676.423 575.256 676.807 575.64C677.191 575.96 677.799 576.12 678.631 576.12H680.263C681.159 576.12 681.799 575.896 682.183 575.448C682.631 575 682.855 574.264 682.855 573.24V570.648H683.431V579.288C683.431 581.976 682.663 584.12 681.127 585.72C679.655 587.32 677.415 588.12 674.407 588.12H672.679C668.135 588.12 664.871 587.032 662.887 584.856C660.903 582.68 659.911 579.8 659.911 576.216V566.136ZM676.231 567.96H659.911V555C659.911 551.416 660.903 548.536 662.887 546.36C664.871 544.184 668.135 543.096 672.679 543.096H674.407C677.415 543.096 679.655 543.896 681.127 545.496C682.663 547.096 683.431 549.24 683.431 551.928V560.568H682.855V557.976C682.855 556.952 682.631 556.216 682.183 555.768C681.799 555.32 681.159 555.096 680.263 555.096H678.631C677.799 555.096 677.191 555.288 676.807 555.672C676.423 555.992 676.231 556.504 676.231 557.208V567.96ZM682.855 589.752V587.064H699.175V591.48C699.175 595.064 698.087 597.944 695.911 600.12C693.799 602.296 690.183 603.384 685.063 603.384H662.119V591.864H680.455C681.287 591.864 681.895 591.672 682.279 591.288C682.663 590.968 682.855 590.456 682.855 589.752ZM699.175 588.12H682.855V552.216H683.143V543.096H699.175V588.12Z" fill="#232323"/>
<circle cx="75.5" cy="74.5" r="56.5" fill="#FC4706"/>
<path d="M55.6409 56.5405C51.9589 53.2081 46.1497 53.4628 43.8319 57.8547C41.9401 61.4394 40.6577 65.3374 40.0596 69.3898C39.0208 76.4273 40.0923 83.6147 43.1384 90.0432C46.1845 96.4717 51.0685 101.853 57.1727 105.505C63.2769 109.158 70.3273 110.919 77.4321 110.565C84.537 110.21 91.3773 107.757 97.088 103.516C102.799 99.274 107.123 93.4341 109.515 86.7345C111.907 80.035 112.258 72.7766 110.525 65.8774C109.527 61.9045 107.863 58.1534 105.624 54.7746C102.881 50.6349 97.0752 50.9592 93.7428 54.6412V54.6412C90.4105 58.3232 90.9907 64.0363 92.6243 68.7259C92.7995 69.2287 92.9527 69.7403 93.0831 70.2596C93.9498 73.7092 93.7742 77.3384 92.5783 80.6882C91.3824 84.038 89.2201 86.9579 86.3647 89.0788C83.5094 91.1996 80.0892 92.4261 76.5368 92.6032C72.9844 92.7803 69.4592 91.9 66.4071 90.0736C63.355 88.2472 60.913 85.5568 59.3899 82.3425C57.8669 79.1282 57.3312 75.5345 57.8505 72.0158C57.9287 71.4862 58.0303 70.9618 58.1545 70.4441C59.3137 65.6152 59.3229 59.8728 55.6409 56.5405V56.5405Z" fill="white"/>
<path d="M57.5893 54.5969C54.266 50.9067 54.5349 45.098 58.9326 42.7911C63.5224 40.3833 68.6108 38.9791 73.8581 38.7186C79.1054 38.4581 84.3079 39.3514 89.1136 41.2928C93.7182 43.1528 94.5611 48.9063 91.6196 52.9075V52.9075C88.6781 56.9086 82.9644 57.4822 78.0428 56.8191C76.9579 56.6729 75.8558 56.6253 74.7498 56.6802C73.6438 56.7351 72.5518 56.8917 71.4868 57.1446C66.6551 58.2919 60.9126 58.287 57.5893 54.5969V54.5969Z" fill="#893405"/>
<defs>
<linearGradient id="paint0_linear_1217_2" x1="513.985" y1="280.363" x2="515.115" y2="48.0607" gradientUnits="userSpaceOnUse">
<stop stop-color="white"/>
<stop offset="1" stop-color="#EEEEEE"/>
</linearGradient>
<linearGradient id="paint1_linear_1217_2" x1="384.857" y1="289.827" x2="383.957" y2="104.835" gradientUnits="userSpaceOnUse">
<stop stop-color="white"/>
<stop offset="1" stop-color="#EEEEEE"/>
</linearGradient>
<linearGradient id="paint2_linear_1217_2" x1="724.992" y1="271.114" x2="724.074" y2="82.5122" gradientUnits="userSpaceOnUse">
<stop stop-color="white"/>
<stop offset="1" stop-color="#EEEEEE"/>
</linearGradient>
<linearGradient id="paint3_linear_1217_2" x1="513.746" y1="462.398" x2="513.759" y2="424.822" gradientUnits="userSpaceOnUse">
<stop stop-color="white"/>
<stop offset="1" stop-color="#EEEEEE"/>
</linearGradient>
<clipPath id="clip0_1217_2">
<rect width="781" height="521" fill="white" transform="translate(149 61)"/>
</clipPath>
</defs>
</svg>
